<mxfile host="app.diagrams.net" modified="2023-10-19T07:52:29.556Z" agent="Mozilla/5.0 (Windows NT 10.0; Win64; x64) AppleWebKit/537.36 (KHTML, like Gecko) Chrome/118.0.0.0 Safari/537.36 Edg/118.0.2088.46" etag="OF3qQsD_GTInrnpj08Uj" version="22.0.4" type="github">
  <diagram name="第 1 页" id="maQsE5VNrd40-2OhutGv">
    <mxGraphModel dx="786" dy="505" grid="1" gridSize="10" guides="1" tooltips="1" connect="1" arrows="1" fold="1" page="1" pageScale="1" pageWidth="827" pageHeight="1169" math="0" shadow="0">
      <root>
        <mxCell id="0" />
        <mxCell id="1" parent="0" />
        <mxCell id="vFDbaUqOnykRUxAGf1MI-1" value="博主发布内容笔记" style="rounded=1;whiteSpace=wrap;html=1;" vertex="1" parent="1">
          <mxGeometry y="190" width="120" height="60" as="geometry" />
        </mxCell>
        <mxCell id="vFDbaUqOnykRUxAGf1MI-2" value="" style="endArrow=none;html=1;rounded=0;" edge="1" parent="1">
          <mxGeometry width="50" height="50" relative="1" as="geometry">
            <mxPoint x="120" y="219.5" as="sourcePoint" />
            <mxPoint x="180" y="219.5" as="targetPoint" />
          </mxGeometry>
        </mxCell>
        <mxCell id="vFDbaUqOnykRUxAGf1MI-3" value="评论区引导用户至@小助理参与百万分享达人或其他热门活动" style="rounded=1;whiteSpace=wrap;html=1;" vertex="1" parent="1">
          <mxGeometry x="180" y="190" width="120" height="60" as="geometry" />
        </mxCell>
        <mxCell id="vFDbaUqOnykRUxAGf1MI-4" value="" style="endArrow=none;html=1;rounded=0;" edge="1" parent="1">
          <mxGeometry width="50" height="50" relative="1" as="geometry">
            <mxPoint x="300" y="219.5" as="sourcePoint" />
            <mxPoint x="360" y="219.5" as="targetPoint" />
          </mxGeometry>
        </mxCell>
        <mxCell id="vFDbaUqOnykRUxAGf1MI-5" value="小助理发送微信号，引导用户加微信" style="rounded=1;whiteSpace=wrap;html=1;" vertex="1" parent="1">
          <mxGeometry x="354" y="190" width="120" height="60" as="geometry" />
        </mxCell>
        <mxCell id="vFDbaUqOnykRUxAGf1MI-6" value="" style="endArrow=none;html=1;rounded=0;" edge="1" parent="1">
          <mxGeometry width="50" height="50" relative="1" as="geometry">
            <mxPoint x="474" y="219.5" as="sourcePoint" />
            <mxPoint x="534" y="219.5" as="targetPoint" />
          </mxGeometry>
        </mxCell>
        <mxCell id="vFDbaUqOnykRUxAGf1MI-7" value="微信中分享移动云盘活动链接" style="rounded=1;whiteSpace=wrap;html=1;" vertex="1" parent="1">
          <mxGeometry x="530" y="190" width="120" height="60" as="geometry" />
        </mxCell>
        <mxCell id="vFDbaUqOnykRUxAGf1MI-8" value="" style="endArrow=none;html=1;rounded=0;" edge="1" parent="1">
          <mxGeometry width="50" height="50" relative="1" as="geometry">
            <mxPoint x="650" y="219.5" as="sourcePoint" />
            <mxPoint x="700" y="219.5" as="targetPoint" />
          </mxGeometry>
        </mxCell>
        <mxCell id="vFDbaUqOnykRUxAGf1MI-9" value="引导用户下载移动云盘APP" style="rounded=1;whiteSpace=wrap;html=1;" vertex="1" parent="1">
          <mxGeometry x="700" y="190" width="120" height="60" as="geometry" />
        </mxCell>
      </root>
    </mxGraphModel>
  </diagram>
</mxfile>
